<svg width="10" height="18" viewBox="0 0 10 18" fill="none" xmlns="http://www.w3.org/2000/svg">
<path d="M9.828 11.616C9.828 12.564 9.486 13.356 8.802 13.992C8.118 14.628 7.212 15 6.084 15.108V17.088H5.076V15.126C4.248 15.09 3.474 14.928 2.754 14.64C2.046 14.352 1.422 13.944 0.882 13.416L1.35 12.534C1.962 13.062 2.562 13.458 3.15 13.722C3.75 13.974 4.398 14.118 5.094 14.154V9.186C4.266 8.97 3.582 8.748 3.042 8.52C2.502 8.28 2.052 7.932 1.692 7.476C1.332 7.02 1.152 6.414 1.152 5.658C1.152 4.998 1.314 4.404 1.638 3.876C1.974 3.348 2.436 2.928 3.024 2.616C3.624 2.292 4.308 2.106 5.076 2.058V0.0959988H6.084V2.058C6.792 2.118 7.458 2.292 8.082 2.58C8.718 2.868 9.27 3.246 9.738 3.714L9.27 4.596C8.358 3.684 7.29 3.168 6.066 3.048V8.34C6.87 8.544 7.524 8.76 8.028 8.988C8.544 9.204 8.97 9.522 9.306 9.942C9.654 10.362 9.828 10.92 9.828 11.616ZM2.286 5.658C2.286 6.354 2.526 6.876 3.006 7.224C3.486 7.572 4.182 7.866 5.094 8.106V3.048C4.218 3.108 3.528 3.372 3.024 3.84C2.532 4.296 2.286 4.902 2.286 5.658ZM6.066 14.118C6.906 14.022 7.554 13.758 8.01 13.326C8.466 12.894 8.694 12.318 8.694 11.598C8.694 10.986 8.466 10.53 8.01 10.23C7.566 9.918 6.918 9.648 6.066 9.42V14.118Z" fill="#349E5B"/>
</svg>
