<svg width="22" height="16" viewBox="0 0 22 16" fill="none" xmlns="http://www.w3.org/2000/svg">
<path d="M22 4.8516C22 4.47316 21.7544 4.16662 21.4513 4.16662H3.31349V1.36617H5.03541V2.64529C5.03541 3.02373 5.28097 3.33027 5.58413 3.33027C5.88728 3.33027 6.13284 3.02373 6.13284 2.64529V0.684976C6.13284 0.306536 5.88728 0 5.58413 0H2.76478C2.46162 0 2.21607 0.306536 2.21607 0.684976V4.16662H0.548712C0.245556 4.16662 0 4.47316 0 4.8516C0 9.14689 2.06752 12.848 5.02632 14.4905L4.85655 14.5775C4.57765 14.7251 4.44426 15.1225 4.56249 15.4706C4.65041 15.7317 4.85352 15.8907 5.06876 15.8907C5.13849 15.8907 5.21124 15.8718 5.28097 15.8377L6.61485 15.1414C7.20601 15.3041 7.81838 15.3911 8.44591 15.3911H13.5541C14.2998 15.3911 15.0214 15.27 15.7095 15.043L17.2314 15.8377C17.3011 15.8755 17.3708 15.8907 17.4436 15.8907C17.6588 15.8907 17.8619 15.7317 17.9498 15.4706C18.0681 15.1225 17.9347 14.7213 17.6558 14.5775L17.2162 14.3504C20.0446 12.6437 22 9.02579 22 4.8516ZM13.5541 14.0288H8.44591C4.57765 14.0288 1.39755 10.2784 1.11561 5.53657H20.8844C20.6025 10.2784 17.4224 14.0288 13.5541 14.0288Z" fill="#525252"/>
</svg>
