<svg width="17" height="21" viewBox="0 0 17 21" fill="none" xmlns="http://www.w3.org/2000/svg">
<path d="M7.3698 0.919543L7.46563 0.935835L15.6115 2.8525C15.7528 2.88558 15.8809 2.96069 15.9787 3.06794C16.0766 3.1752 16.1396 3.30958 16.1596 3.45338L16.1663 3.55208V17.4479C16.1664 17.5931 16.1225 17.7349 16.0404 17.8547C15.9583 17.9744 15.8418 18.0665 15.7063 18.1188L15.6124 18.1475L7.46659 20.0642C7.36913 20.0871 7.26794 20.0895 7.16952 20.071C7.0711 20.0526 6.97762 20.0138 6.89506 19.9572C6.8125 19.9005 6.7427 19.8272 6.69011 19.742C6.63753 19.6568 6.60334 19.5615 6.58972 19.4623L6.58301 19.3646V1.63542C6.58289 1.44919 6.65505 1.27019 6.78429 1.13612C6.91354 1.00205 7.08978 0.923372 7.27588 0.916668L7.3698 0.919543ZM8.02051 2.54296V18.457L14.7288 16.8787V4.12133L8.02051 2.54296ZM5.62467 2.83333V4.27083H2.27051V16.7292H5.62467V18.1667H1.55176C1.37807 18.1667 1.21026 18.1038 1.07937 17.9896C0.948469 17.8754 0.863337 17.7177 0.839716 17.5457L0.833008 17.4479V3.55208C0.833015 3.3784 0.895916 3.21059 1.01008 3.07969C1.12424 2.9488 1.28194 2.86366 1.45401 2.84004L1.55176 2.83333H5.62467ZM10.4163 9.54167C10.6705 9.54167 10.9143 9.64264 11.094 9.82236C11.2737 10.0021 11.3747 10.2458 11.3747 10.5C11.3747 10.7542 11.2737 10.9979 11.094 11.1776C10.9143 11.3574 10.6705 11.4583 10.4163 11.4583C10.1622 11.4583 9.91842 11.3574 9.7387 11.1776C9.55897 10.9979 9.45801 10.7542 9.45801 10.5C9.45801 10.2458 9.55897 10.0021 9.7387 9.82236C9.91842 9.64264 10.1622 9.54167 10.4163 9.54167Z" fill="#525252"/>
</svg>
