<?xml version="1.0" encoding="utf-8"?>
<!-- Generator: Adobe Illustrator 25.3.1, SVG Export Plug-In . SVG Version: 6.00 Build 0)  -->
<svg version="1.1" id="Слой_1" xmlns="http://www.w3.org/2000/svg" xmlns:xlink="http://www.w3.org/1999/xlink" x="0px" y="0px"
	 viewBox="0 0 30 30" style="enable-background:new 0 0 30 30;" xml:space="preserve">
<style type="text/css">
	.st0{fill:#349E5B;}
</style>
<path class="st0" d="M15,0C6.7,0,0,6.7,0,15c0,8.3,6.7,15,15,15c8.3,0,15-6.7,15-15C30,6.7,23.3,0,15,0z M23.6,12.5l-9.4,9.4
	c-0.4,0.4-0.9,0.6-1.5,0.6s-1.1-0.2-1.5-0.6l-4.8-4.8c-0.4-0.4-0.6-0.9-0.6-1.5c0-0.6,0.2-1.1,0.6-1.5c0.4-0.4,0.9-0.6,1.5-0.6
	c0.6,0,1.1,0.2,1.5,0.6l3.3,3.3l7.9-7.9c0.4-0.4,0.9-0.6,1.5-0.6c0.6,0,1.1,0.2,1.5,0.6C24.4,10.3,24.4,11.6,23.6,12.5z"/>
<rect x="-9.3" y="26" class="st0" width="24.3" height="8"/>
<rect x="-4.3" y="17.7" class="st0" width="10.1" height="12.7"/>
<rect x="-15.8" y="21.5" class="st0" width="10.1" height="12.7"/>
<rect x="-4.9" y="13.4" class="st0" width="6.2" height="5.6"/>
<rect x="-2.3" y="-1.5" class="st0" width="3.6" height="15.2"/>
<rect x="-3.1" y="-2.4" class="st0" width="17.5" height="4.9"/>
<rect x="-8.5" y="-0.6" class="st0" width="17.1" height="10.3"/>
<rect x="10" y="-2.4" class="st0" width="26.7" height="6.2"/>
<rect x="24.9" y="2.1" class="st0" width="12.5" height="13.4"/>
<rect x="20.6" y="19" class="st0" width="14.1" height="15.2"/>
<rect x="17.5" y="26.6" class="st0" width="7.4" height="7.1"/>
<rect x="10.9" y="27.2" class="st0" width="11.1" height="7.9"/>
<rect x="28.1" y="11.7" class="st0" width="6.2" height="9.5"/>
</svg>
