<svg width="25" height="33" viewBox="0 0 25 33" fill="none" xmlns="http://www.w3.org/2000/svg">
<mask id="path-1-inside-1_296:1089" fill="white">
<path d="M10.9422 11.9641C11.1341 11.7722 11.2419 11.512 11.2419 11.2406C11.2419 10.9693 11.1341 10.709 10.9422 10.5171C10.7504 10.3253 10.4901 10.2175 10.2188 10.2175C9.94739 10.2175 9.68715 10.3253 9.49527 10.5171L6.60949 13.4029L5.79812 12.6631C5.59652 12.4908 5.33583 12.4036 5.07113 12.4199C4.80644 12.4363 4.55847 12.5549 4.37962 12.7508C4.20078 12.9466 4.10507 13.2043 4.11272 13.4694C4.12038 13.7345 4.23079 13.9862 4.42063 14.1714L5.95345 15.5713C6.14766 15.7482 6.4025 15.8434 6.66509 15.8373C6.92767 15.8312 7.17782 15.7243 7.36363 15.5386L10.9402 11.9621L10.9422 11.9641ZM10.9422 20.7359C11.0374 20.8308 11.1129 20.9436 11.1644 21.0677C11.2159 21.1919 11.2425 21.325 11.2425 21.4594C11.2425 21.5938 11.2159 21.7269 11.1644 21.851C11.1129 21.9752 11.0374 22.0879 10.9422 22.1829L7.36568 25.7594C7.17951 25.9454 6.92878 26.0524 6.66571 26.0581C6.40264 26.0638 6.14751 25.9678 5.95345 25.7901L4.42063 24.3901C4.23079 24.2049 4.12038 23.9532 4.11272 23.6881C4.10507 23.423 4.20078 23.1653 4.37962 22.9695C4.55847 22.7737 4.80644 22.6551 5.07113 22.6387C5.33583 22.6223 5.59652 22.7095 5.79812 22.8818L6.60949 23.6237L9.49527 20.7359C9.59019 20.6407 9.70296 20.5652 9.8271 20.5137C9.95125 20.4622 10.0843 20.4357 10.2188 20.4357C10.3532 20.4357 10.4863 20.4622 10.6104 20.5137C10.7346 20.5652 10.8473 20.6407 10.9422 20.7359ZM14.3063 22.4813C14.0352 22.4813 13.7753 22.5889 13.5837 22.7806C13.392 22.9722 13.2844 23.2321 13.2844 23.5031C13.2844 23.7742 13.392 24.0341 13.5837 24.2257C13.7753 24.4173 14.0352 24.525 14.3063 24.525H19.4156C19.6867 24.525 19.9466 24.4173 20.1382 24.2257C20.3298 24.0341 20.4375 23.7742 20.4375 23.5031C20.4375 23.2321 20.3298 22.9722 20.1382 22.7806C19.9466 22.5889 19.6867 22.4813 19.4156 22.4813H14.3063ZM13.2844 13.2844C13.2844 13.0134 13.392 12.7534 13.5837 12.5618C13.7753 12.3702 14.0352 12.2625 14.3063 12.2625H19.4156C19.6867 12.2625 19.9466 12.3702 20.1382 12.5618C20.3298 12.7534 20.4375 13.0134 20.4375 13.2844C20.4375 13.5554 20.3298 13.8153 20.1382 14.007C19.9466 14.1986 19.6867 14.3063 19.4156 14.3063H14.3063C14.0352 14.3063 13.7753 14.1986 13.5837 14.007C13.392 13.8153 13.2844 13.5554 13.2844 13.2844ZM9.19688 4.21496e-07C8.56265 -0.000332069 7.94393 0.196053 7.42599 0.562089C6.90805 0.928126 6.51638 1.44579 6.30497 2.04375H3.06563C2.25257 2.04375 1.47282 2.36674 0.897901 2.94165C0.322984 3.51657 0 4.29632 0 5.10938V29.6344C0 30.4474 0.322984 31.2272 0.897901 31.8021C1.47282 32.377 2.25257 32.7 3.06563 32.7H21.4594C22.2724 32.7 23.0522 32.377 23.6271 31.8021C24.202 31.2272 24.525 30.4474 24.525 29.6344V5.10938C24.525 4.29632 24.202 3.51657 23.6271 2.94165C23.0522 2.36674 22.2724 2.04375 21.4594 2.04375H18.22C18.0086 1.44579 17.617 0.928126 17.099 0.562089C16.5811 0.196053 15.9624 -0.000332069 15.3281 4.21496e-07H9.19688ZM8.175 3.06563C8.175 2.79461 8.28266 2.53469 8.4743 2.34305C8.66594 2.15141 8.92586 2.04375 9.19688 2.04375H15.3281C15.5991 2.04375 15.8591 2.15141 16.0507 2.34305C16.2423 2.53469 16.35 2.79461 16.35 3.06563C16.35 3.33664 16.2423 3.59656 16.0507 3.7882C15.8591 3.97984 15.5991 4.0875 15.3281 4.0875H9.19688C8.92586 4.0875 8.66594 3.97984 8.4743 3.7882C8.28266 3.59656 8.175 3.33664 8.175 3.06563ZM3.06563 4.0875H6.30497C6.51638 4.68546 6.90805 5.20313 7.42599 5.56916C7.94393 5.9352 8.56265 6.13159 9.19688 6.13125H15.3281C15.9624 6.13159 16.5811 5.9352 17.099 5.56916C17.617 5.20313 18.0086 4.68546 18.22 4.0875H21.4594C21.7304 4.0875 21.9903 4.19516 22.182 4.3868C22.3736 4.57844 22.4813 4.83836 22.4813 5.10938V29.6344C22.4813 29.9054 22.3736 30.1653 22.182 30.357C21.9903 30.5486 21.7304 30.6563 21.4594 30.6563H3.06563C2.79461 30.6563 2.53469 30.5486 2.34305 30.357C2.15141 30.1653 2.04375 29.9054 2.04375 29.6344V5.10938C2.04375 4.83836 2.15141 4.57844 2.34305 4.3868C2.53469 4.19516 2.79461 4.0875 3.06563 4.0875Z"/>
</mask>
<path d="M10.9422 11.9641C11.1341 11.7722 11.2419 11.512 11.2419 11.2406C11.2419 10.9693 11.1341 10.709 10.9422 10.5171C10.7504 10.3253 10.4901 10.2175 10.2188 10.2175C9.94739 10.2175 9.68715 10.3253 9.49527 10.5171L6.60949 13.4029L5.79812 12.6631C5.59652 12.4908 5.33583 12.4036 5.07113 12.4199C4.80644 12.4363 4.55847 12.5549 4.37962 12.7508C4.20078 12.9466 4.10507 13.2043 4.11272 13.4694C4.12038 13.7345 4.23079 13.9862 4.42063 14.1714L5.95345 15.5713C6.14766 15.7482 6.4025 15.8434 6.66509 15.8373C6.92767 15.8312 7.17782 15.7243 7.36363 15.5386L10.9402 11.9621L10.9422 11.9641ZM10.9422 20.7359C11.0374 20.8308 11.1129 20.9436 11.1644 21.0677C11.2159 21.1919 11.2425 21.325 11.2425 21.4594C11.2425 21.5938 11.2159 21.7269 11.1644 21.851C11.1129 21.9752 11.0374 22.0879 10.9422 22.1829L7.36568 25.7594C7.17951 25.9454 6.92878 26.0524 6.66571 26.0581C6.40264 26.0638 6.14751 25.9678 5.95345 25.7901L4.42063 24.3901C4.23079 24.2049 4.12038 23.9532 4.11272 23.6881C4.10507 23.423 4.20078 23.1653 4.37962 22.9695C4.55847 22.7737 4.80644 22.6551 5.07113 22.6387C5.33583 22.6223 5.59652 22.7095 5.79812 22.8818L6.60949 23.6237L9.49527 20.7359C9.59019 20.6407 9.70296 20.5652 9.8271 20.5137C9.95125 20.4622 10.0843 20.4357 10.2188 20.4357C10.3532 20.4357 10.4863 20.4622 10.6104 20.5137C10.7346 20.5652 10.8473 20.6407 10.9422 20.7359ZM14.3063 22.4813C14.0352 22.4813 13.7753 22.5889 13.5837 22.7806C13.392 22.9722 13.2844 23.2321 13.2844 23.5031C13.2844 23.7742 13.392 24.0341 13.5837 24.2257C13.7753 24.4173 14.0352 24.525 14.3063 24.525H19.4156C19.6867 24.525 19.9466 24.4173 20.1382 24.2257C20.3298 24.0341 20.4375 23.7742 20.4375 23.5031C20.4375 23.2321 20.3298 22.9722 20.1382 22.7806C19.9466 22.5889 19.6867 22.4813 19.4156 22.4813H14.3063ZM13.2844 13.2844C13.2844 13.0134 13.392 12.7534 13.5837 12.5618C13.7753 12.3702 14.0352 12.2625 14.3063 12.2625H19.4156C19.6867 12.2625 19.9466 12.3702 20.1382 12.5618C20.3298 12.7534 20.4375 13.0134 20.4375 13.2844C20.4375 13.5554 20.3298 13.8153 20.1382 14.007C19.9466 14.1986 19.6867 14.3063 19.4156 14.3063H14.3063C14.0352 14.3063 13.7753 14.1986 13.5837 14.007C13.392 13.8153 13.2844 13.5554 13.2844 13.2844ZM9.19688 4.21496e-07C8.56265 -0.000332069 7.94393 0.196053 7.42599 0.562089C6.90805 0.928126 6.51638 1.44579 6.30497 2.04375H3.06563C2.25257 2.04375 1.47282 2.36674 0.897901 2.94165C0.322984 3.51657 0 4.29632 0 5.10938V29.6344C0 30.4474 0.322984 31.2272 0.897901 31.8021C1.47282 32.377 2.25257 32.7 3.06563 32.7H21.4594C22.2724 32.7 23.0522 32.377 23.6271 31.8021C24.202 31.2272 24.525 30.4474 24.525 29.6344V5.10938C24.525 4.29632 24.202 3.51657 23.6271 2.94165C23.0522 2.36674 22.2724 2.04375 21.4594 2.04375H18.22C18.0086 1.44579 17.617 0.928126 17.099 0.562089C16.5811 0.196053 15.9624 -0.000332069 15.3281 4.21496e-07H9.19688ZM8.175 3.06563C8.175 2.79461 8.28266 2.53469 8.4743 2.34305C8.66594 2.15141 8.92586 2.04375 9.19688 2.04375H15.3281C15.5991 2.04375 15.8591 2.15141 16.0507 2.34305C16.2423 2.53469 16.35 2.79461 16.35 3.06563C16.35 3.33664 16.2423 3.59656 16.0507 3.7882C15.8591 3.97984 15.5991 4.0875 15.3281 4.0875H9.19688C8.92586 4.0875 8.66594 3.97984 8.4743 3.7882C8.28266 3.59656 8.175 3.33664 8.175 3.06563ZM3.06563 4.0875H6.30497C6.51638 4.68546 6.90805 5.20313 7.42599 5.56916C7.94393 5.9352 8.56265 6.13159 9.19688 6.13125H15.3281C15.9624 6.13159 16.5811 5.9352 17.099 5.56916C17.617 5.20313 18.0086 4.68546 18.22 4.0875H21.4594C21.7304 4.0875 21.9903 4.19516 22.182 4.3868C22.3736 4.57844 22.4813 4.83836 22.4813 5.10938V29.6344C22.4813 29.9054 22.3736 30.1653 22.182 30.357C21.9903 30.5486 21.7304 30.6563 21.4594 30.6563H3.06563C2.79461 30.6563 2.53469 30.5486 2.34305 30.357C2.15141 30.1653 2.04375 29.9054 2.04375 29.6344V5.10938C2.04375 4.83836 2.15141 4.57844 2.34305 4.3868C2.53469 4.19516 2.79461 4.0875 3.06563 4.0875Z" fill="#349E5B" stroke="white" stroke-width="0.4" mask="url(#path-1-inside-1_296:1089)"/>
</svg>
