<svg width="24" height="30" viewBox="0 0 24 30" fill="none" xmlns="http://www.w3.org/2000/svg">
<path d="M23.8174 6.65941C23.7848 6.65941 23.7848 6.62677 23.7521 6.59412C23.7195 6.56148 23.7195 6.52884 23.6868 6.49619L18.072 0.195865C18.0394 0.163221 17.9741 0.130577 17.9415 0.0979325C17.9088 0.0979325 17.9088 0.0652884 17.8762 0.0652884C17.8109 0.0326442 17.713 0 17.615 0H3.83918C1.81524 0 0.150391 1.66485 0.150391 3.68879V26.3112C0.150391 28.3351 1.81524 30 3.83918 30H20.1613C22.1852 30 23.8501 28.3351 23.8501 26.3112V6.88792C23.8501 6.82263 23.8174 6.7247 23.8174 6.65941ZM18.2353 2.2198L21.8588 6.30033H18.2353V2.2198ZM22.6096 26.2786C22.6096 27.6496 21.5323 28.7595 20.1613 28.7595H3.83918C2.46813 28.7595 1.39087 27.6496 1.39087 26.3112V3.65615C1.39087 2.28509 2.50077 1.20783 3.83918 1.20783H16.9948V6.88792C16.9948 7.21436 17.2559 7.50816 17.615 7.50816H22.6096V26.2786Z" fill="#349E5B"/>
<path d="M4.55579 7.50819H10.0074C10.3338 7.50819 10.6276 7.24704 10.6276 6.88795C10.6276 6.52886 10.3664 6.2677 10.0074 6.2677H4.55579C4.22934 6.2677 3.93555 6.52886 3.93555 6.88795C3.93555 7.24704 4.22934 7.50819 4.55579 7.50819Z" fill="#349E5B"/>
<path d="M10.0074 22.4919H4.55579C4.22934 22.4919 3.93555 22.753 3.93555 23.1121C3.93555 23.4385 4.1967 23.7323 4.55579 23.7323H10.0074C10.3338 23.7323 10.6276 23.4712 10.6276 23.1121C10.6276 22.7856 10.3338 22.4919 10.0074 22.4919Z" fill="#349E5B"/>
<path d="M3.93555 11.0011C3.93555 11.3275 4.1967 11.6213 4.55579 11.6213H19.1151C19.4415 11.6213 19.7353 11.3602 19.7353 11.0011C19.7353 10.6746 19.4742 10.3808 19.1151 10.3808H4.55579C4.22934 10.3808 3.93555 10.642 3.93555 11.0011Z" fill="#349E5B"/>
<path d="M19.1151 13.4494H4.55579C4.22934 13.4494 3.93555 13.7106 3.93555 14.0697C3.93555 14.3961 4.1967 14.6899 4.55579 14.6899H19.1151C19.4415 14.6899 19.7353 14.4288 19.7353 14.0697C19.7353 13.7106 19.4742 13.4494 19.1151 13.4494Z" fill="#349E5B"/>
<path d="M19.1151 16.4853H4.55579C4.22934 16.4853 3.93555 16.7465 3.93555 17.1056C3.93555 17.432 4.1967 17.7258 4.55579 17.7258H19.1151C19.4415 17.7258 19.7353 17.4646 19.7353 17.1056C19.7353 16.7465 19.4742 16.4853 19.1151 16.4853Z" fill="#349E5B"/>
<path d="M19.1151 19.5212H4.55579C4.22934 19.5212 3.93555 19.7823 3.93555 20.1414C3.93555 20.4679 4.1967 20.7617 4.55579 20.7617H19.1151C19.4415 20.7617 19.7353 20.5005 19.7353 20.1414C19.7353 19.815 19.4742 19.5212 19.1151 19.5212Z" fill="#349E5B"/>
</svg>
