<svg width="33" height="30" viewBox="0 0 33 30" fill="none" xmlns="http://www.w3.org/2000/svg">
<path d="M4.82673 10.1702H10.9661C11.444 10.1702 11.8315 10.5577 11.8315 11.0356C11.8315 11.5135 11.444 11.901 10.9661 11.901H4.82673C4.3488 11.901 3.96133 11.5135 3.96133 11.0356C3.96133 10.5577 4.3488 10.1702 4.82673 10.1702Z" fill="#349E5B" stroke="white" stroke-width="0.2"/>
<path d="M4.82673 6.30859H10.9661C11.444 6.30859 11.8315 6.69606 11.8315 7.17399C11.8315 7.65193 11.444 8.0394 10.9661 8.0394H4.82673C4.3488 8.0394 3.96133 7.65193 3.96133 7.17399C3.96133 6.69606 4.3488 6.30859 4.82673 6.30859Z" fill="#349E5B" stroke="white" stroke-width="0.2"/>
<path d="M4.82673 14.0318H10.9661C11.444 14.0318 11.8315 14.4193 11.8315 14.8972C11.8315 15.3752 11.444 15.7626 10.9661 15.7626H4.82673C4.3488 15.7626 3.96133 15.3752 3.96133 14.8972C3.96133 14.4193 4.3488 14.0318 4.82673 14.0318Z" fill="#349E5B" stroke="white" stroke-width="0.2"/>
<path d="M4.82673 17.8934H10.9661C11.444 17.8934 11.8315 18.2809 11.8315 18.7588C11.8315 19.2367 11.444 19.6242 10.9661 19.6242H4.82673C4.3488 19.6242 3.96133 19.2367 3.96133 18.7588C3.96133 18.2809 4.3488 17.8934 4.82673 17.8934Z" fill="#349E5B" stroke="white" stroke-width="0.2"/>
<path d="M4.82673 21.7551H10.9661C11.444 21.7551 11.8315 22.1426 11.8315 22.6205C11.8315 23.0984 11.444 23.4859 10.9661 23.4859H4.82673C4.3488 23.4859 3.96133 23.0984 3.96133 22.6205C3.96133 22.1426 4.3488 21.7551 4.82673 21.7551Z" fill="#349E5B" stroke="white" stroke-width="0.2"/>
<path d="M24.9509 14.3572H25.0509L25.0509 14.2572L25.05 12.2174C25.0497 11.4662 25.9446 11.0724 26.4986 11.5776L32.6179 17.1589C32.9939 17.5019 32.9941 18.0947 32.6178 18.4378L26.4997 24.0166C26.4997 24.0166 26.4997 24.0166 26.4997 24.0166C25.9486 24.519 25.0512 24.1317 25.0512 23.3771V21.3369V21.2369H24.9512H22.6149H22.5149V21.3369V28.6296C22.5149 29.1075 22.1275 29.495 21.6495 29.495H0.965405C0.487472 29.495 0.1 29.1075 0.1 28.6296V1.16564C0.1 0.687709 0.487473 0.300236 0.965405 0.300236H15.4494V0.300259L15.4516 0.300212C15.6885 0.295078 15.9189 0.388931 16.0834 0.553428C16.0834 0.553431 16.0834 0.553434 16.0834 0.553437L22.2615 6.7308L22.2615 6.73082C22.4264 6.89561 22.5149 7.1222 22.5149 7.34295V14.2572V14.3572H22.6149H24.9509ZM16.5077 3.42516L16.337 3.25447V3.49587V6.37735V6.47735H16.437H19.3188H19.5602L19.3895 6.30663L16.5077 3.42516ZM20.6841 27.7641H20.7841V27.6641V21.3369V21.2369H20.6841H16.8431C16.3652 21.2369 15.9777 20.8495 15.9777 20.3715V15.2227C15.9777 14.7448 16.3652 14.3573 16.8431 14.3573H20.6841H20.7841V14.2573V8.30816V8.20816H20.6841H15.4716C14.9937 8.20816 14.6062 7.82069 14.6062 7.34275V2.13098V2.03098H14.5062H1.93081H1.83081V2.13098V27.6641V27.7641H1.93081H20.6841ZM26.782 21.1903V21.4168L26.9494 21.2642L30.6694 17.8722L30.7505 17.7983L30.6694 17.7244L26.9491 14.3311L26.7816 14.1784L26.7817 14.4051L26.782 15.2222C26.7822 15.7003 26.3945 16.0881 25.9166 16.0881H17.8085H17.7085V16.1881V19.4061V19.5061H17.8085H17.8098H17.8113H17.8129H17.8148H17.8167H17.8189H17.8212H17.8237H17.8264H17.8292H17.8322H17.8353H17.8386H17.8421H17.8457H17.8495H17.8535H17.8576H17.8619H17.8663H17.8709H17.8756H17.8805H17.8856H17.8908H17.8962H17.9017H17.9074H17.9132H17.9192H17.9253H17.9316H17.9381H17.9446H17.9514H17.9583H17.9653H17.9725H17.9798H17.9872H17.9948H18.0026H18.0105H18.0185H18.0267H18.035H18.0435H18.0521H18.0608H18.0697H18.0787H18.0879H18.0972H18.1066H18.1162H18.1259H18.1357H18.1457H18.1558H18.166H18.1763H18.1868H18.1974H18.2082H18.2191H18.2301H18.2412H18.2525H18.2638H18.2754H18.287H18.2987H18.3106H18.3226H18.3347H18.347H18.3594H18.3718H18.3844H18.3972H18.41H18.423H18.436H18.4492H18.4625H18.476H18.4895H18.5031H18.5169H18.5308H18.5447H18.5588H18.573H18.5873H18.6018H18.6163H18.6309H18.6457H18.6605H18.6755H18.6905H18.7057H18.7209H18.7363H18.7518H18.7673H18.783H18.7988H18.8146H18.8306H18.8466H18.8628H18.8791H18.8954H18.9119H18.9284H18.945H18.9618H18.9786H18.9955H19.0125H19.0296H19.0468H19.064H19.0814H19.0988H19.1164H19.134H19.1517H19.1695H19.1874H19.2053H19.2234H19.2415H19.2597H19.278H19.2963H19.3148H19.3333H19.3519H19.3706H19.3893H19.4082H19.4271H19.4461H19.4651H19.4843H19.5035H19.5227H19.5421H19.5615H19.581H19.6006H19.6202H19.6399H19.6597H19.6795H19.6994H19.7193H19.7394H19.7595H19.7796H19.7998H19.8201H19.8405H19.8609H19.8813H19.9019H19.9224H19.9431H19.9638H19.9845H20.0053H20.0262H20.0471H20.0681H20.0891H20.1102H20.1313H20.1525H20.1738H20.1951H20.2164H20.2378H20.2592H20.2807H20.3022H20.3238H20.3454H20.3671H20.3888H20.4105H20.4323H20.4542H20.476H20.498H20.5199H20.5419H20.5639H20.586H20.6081H20.6303H20.6525H20.6747H20.6969H20.7192H20.7416H20.7639H20.7863H20.8087H20.8312H20.8537H20.8762H20.8987H20.9213H20.9439H20.9665H20.9891H21.0118H21.0345H21.0572H21.08H21.1027H21.1255H21.1483H21.1712H21.194H21.2169H21.2398H21.2627H21.2856H21.3086H21.3315H21.3545H21.3775H21.4005H21.4235H21.4465H21.4696H21.4926H21.5157H21.5388H21.5618H21.5849H21.608H21.6311H21.6542H21.6774H21.7005H21.7236H21.7467H21.7699H21.793H21.8162H21.8393H21.8624H21.8856H21.9087H21.9319H21.955H21.9781H22.0013H22.0244H22.0475H22.0707H22.0938H22.1169H22.14H22.1631H22.1861H22.2092H22.2323H22.2553H22.2784H22.3014H22.3244H22.3474H22.3704H22.3934H22.4163H22.4393H22.4622H22.4851H22.508H22.5309H22.5537H22.5766H22.5994H22.6222H22.6449H22.6677H22.6904H22.7131H22.7358H22.7584H22.781H22.8036H22.8262H22.8487H22.8712H22.8937H22.9162H22.9386H22.961H22.9833H23.0057H23.028H23.0502H23.0724H23.0946H23.1168H23.1389H23.161H23.183H23.205H23.227H23.2489H23.2708H23.2926H23.3144H23.3361H23.3578H23.3795H23.4011H23.4227H23.4442H23.4657H23.4871H23.5085H23.5299H23.5511H23.5724H23.5936H23.6147H23.6358H23.6568H23.6778H23.6987H23.7196H23.7404H23.7611H23.7818H23.8025H23.8231H23.8436H23.8641H23.8845H23.9048H23.9251H23.9453H23.9655H23.9856H24.0056H24.0255H24.0454H24.0653H24.085H24.1047H24.1244H24.1439H24.1634H24.1828H24.2022H24.2215H24.2407H24.2598H24.2789H24.2978H24.3168H24.3356H24.3544H24.373H24.3916H24.4102H24.4286H24.447H24.4653H24.4835H24.5016H24.5196H24.5376H24.5555H24.5733H24.591H24.6086H24.6261H24.6436H24.6609H24.6782H24.6954H24.7125H24.7295H24.7464H24.7632H24.7799H24.7966H24.8131H24.8296H24.8459H24.8622H24.8783H24.8944H24.9104H24.9262H24.942H24.9577H24.9732H24.9887H25.0041H25.0193H25.0345H25.0495H25.0645H25.0793H25.0941H25.1087H25.1232H25.1376H25.152H25.1662H25.1803H25.1942H25.2081H25.2219H25.2355H25.249H25.2625H25.2758H25.289H25.302H25.315H25.3278H25.3406H25.3532H25.3657H25.378H25.3903H25.4024H25.4144H25.4263H25.438H25.4497H25.4612H25.4726H25.4838H25.495H25.506H25.5168H25.5276H25.5382H25.5487H25.5591H25.5693H25.5794H25.5893H25.5992H25.6089H25.6184H25.6279H25.6372H25.6463H25.6553H25.6642H25.673H25.6816H25.69H25.6983H25.7065H25.7146H25.7225H25.7302H25.7378H25.7453H25.7526H25.7598H25.7668H25.7737H25.7804H25.787H25.7935H25.7997H25.8059H25.8119H25.8177H25.8234H25.8289H25.8343H25.8395H25.8445H25.8495H25.8542H25.8588H25.8632H25.8675H25.8716H25.8756H25.8794H25.883H25.8865H25.8898H25.893H25.8959H25.8988H25.9014H25.9039H25.9062H25.9084H25.9104H25.9122H25.9138H25.9153H25.9166C26.3946 19.5061 26.782 19.8935 26.782 20.3715V21.1903Z" fill="#349E5B" stroke="white" stroke-width="0.2"/>
</svg>
