<svg width="20" height="19" viewBox="0 0 20 19" fill="none" xmlns="http://www.w3.org/2000/svg">
<path d="M18.8281 7.89564V1.9458C18.8281 0.873449 18.0391 0 17.0703 0H2.92969C1.96094 0 1.17188 0.873449 1.17188 1.9458V7.89564C0.488281 8.16372 0 8.88151 0 9.72902V17.5122C0 17.8711 0.261719 18.1608 0.585938 18.1608H2.92969C3.25391 18.1608 3.51562 17.8711 3.51562 17.5122V15.5664H16.4844V17.5122C16.4844 17.8711 16.7461 18.1608 17.0703 18.1608H19.4141C19.7383 18.1608 20 17.8711 20 17.5122V9.72902C20 8.88151 19.5117 8.16372 18.8281 7.89564ZM2.92969 1.2972H17.0703C17.3945 1.2972 17.6562 1.58691 17.6562 1.9458V7.78321H16.3828C16.4492 7.57998 16.4844 7.36378 16.4844 7.13461V5.83741C16.4844 4.76506 15.6953 3.89161 14.7266 3.89161H12.3438C11.375 3.89161 10.5859 4.76506 10.5859 5.83741V7.13461C10.5859 7.36378 10.6211 7.57998 10.6875 7.78321H9.3125C9.37891 7.57998 9.41406 7.36378 9.41406 7.13461V5.83741C9.41406 4.76506 8.625 3.89161 7.65625 3.89161H5.27344C4.30469 3.89161 3.51562 4.76506 3.51562 5.83741V7.13461C3.51562 7.36378 3.55078 7.57998 3.61719 7.78321H2.34375V1.9458C2.34375 1.58691 2.60547 1.2972 2.92969 1.2972ZM11.7578 7.13461V5.83741C11.7578 5.47852 12.0195 5.18881 12.3438 5.18881H14.7266C15.0508 5.18881 15.3125 5.47852 15.3125 5.83741V7.13461C15.3125 7.4935 15.0508 7.78321 14.7266 7.78321H12.3438C12.0195 7.78321 11.7578 7.4935 11.7578 7.13461ZM4.6875 7.13461V5.83741C4.6875 5.47852 4.94922 5.18881 5.27344 5.18881H7.65625C7.98047 5.18881 8.24219 5.47852 8.24219 5.83741V7.13461C8.24219 7.4935 7.98047 7.78321 7.65625 7.78321H5.27344C4.94922 7.78321 4.6875 7.4935 4.6875 7.13461ZM1.75781 9.08041H18.2422C18.5664 9.08041 18.8281 9.37012 18.8281 9.72902V11.6748H1.17188V9.72902C1.17188 9.37012 1.43359 9.08041 1.75781 9.08041ZM17.6562 16.8636V14.9178C17.6562 14.5589 17.3945 14.2692 17.0703 14.2692H2.92969C2.60547 14.2692 2.34375 14.5589 2.34375 14.9178V16.8636H1.17188V12.972H18.8281V16.8636H17.6562Z" fill="#525252"/>
</svg>
