<svg width="20" height="20" viewBox="0 0 20 20" fill="none" xmlns="http://www.w3.org/2000/svg">
<path d="M17.1875 18.125V0.625H2.8125V18.125H0.625V19.375H19.375V18.125H17.1875ZM15.9375 18.125H10.625V15.625H9.375V18.125H4.0625V1.875H15.9375V18.125Z" fill="#525252"/>
<path d="M6.25 11.875H7.5V13.125H6.25V11.875Z" fill="#525252"/>
<path d="M9.375 11.875H10.625V13.125H9.375V11.875Z" fill="#525252"/>
<path d="M12.5 11.875H13.75V13.125H12.5V11.875Z" fill="#525252"/>
<path d="M6.25 8.125H7.5V9.375H6.25V8.125Z" fill="#525252"/>
<path d="M9.375 8.125H10.625V9.375H9.375V8.125Z" fill="#525252"/>
<path d="M12.5 8.125H13.75V9.375H12.5V8.125Z" fill="#525252"/>
<path d="M6.25 4.375H7.5V5.625H6.25V4.375Z" fill="#525252"/>
<path d="M9.375 4.375H10.625V5.625H9.375V4.375Z" fill="#525252"/>
<path d="M12.5 4.375H13.75V5.625H12.5V4.375Z" fill="#525252"/>
</svg>
