<?xml version="1.0" encoding="utf-8"?>
<!-- Generator: Adobe Illustrator 25.3.1, SVG Export Plug-In . SVG Version: 6.00 Build 0)  -->
<svg version="1.1" id="Слой_1" xmlns="http://www.w3.org/2000/svg" xmlns:xlink="http://www.w3.org/1999/xlink" x="0px" y="0px"
	 viewBox="0 0 28 28" style="enable-background:new 0 0 28 28;" xml:space="preserve">
<style type="text/css">
	.st0{fill:#349E5B;}
</style>
<path class="st0" d="M14,0.6C6.6,0.6,0.6,6.6,0.6,14c0,7.4,6,13.4,13.4,13.4c7.4,0,13.4-6,13.4-13.4C27.4,6.6,21.4,0.6,14,0.6z
	 M10.7,19.6H8v-8.8h2.7V19.6z M9.3,9.7c-0.9,0-1.4-0.6-1.4-1.4C7.9,7.6,8.5,7,9.4,7c0.9,0,1.4,0.6,1.4,1.4
	C10.8,9.1,10.2,9.7,9.3,9.7z M20.7,19.6h-2.7v-4.9c0-1.1-0.4-1.9-1.4-1.9c-0.8,0-1.2,0.5-1.4,1c-0.1,0.2-0.1,0.4-0.1,0.7v5h-2.7v-6
	c0-1.1,0-2-0.1-2.8h2.4l0.1,1.2h0.1c0.4-0.6,1.2-1.4,2.7-1.4c1.8,0,3.1,1.2,3.1,3.8V19.6z"/>
</svg>
