<?xml version="1.0" encoding="utf-8"?>
<!-- Generator: Adobe Illustrator 25.3.1, SVG Export Plug-In . SVG Version: 6.00 Build 0)  -->
<svg version="1.1" id="Слой_1" xmlns="http://www.w3.org/2000/svg" xmlns:xlink="http://www.w3.org/1999/xlink" x="0px" y="0px"
	 viewBox="0 0 28 28" style="enable-background:new 0 0 28 28;" xml:space="preserve">
<style type="text/css">
	.st0{fill:#349E5B;}
</style>
<path class="st0" d="M18.2,14c0,1.1-0.4,2.2-1.2,3c-0.8,0.8-1.9,1.2-3,1.2c-1.1,0-2.2-0.4-3-1.2c-0.8-0.8-1.2-1.9-1.2-3
	c0-0.2,0-0.5,0.1-0.7H8.4v5.6c0,0.4,0.3,0.7,0.7,0.7h9.8c0.2,0,0.4-0.1,0.5-0.2s0.2-0.3,0.2-0.5v-5.6h-1.5
	C18.2,13.5,18.2,13.8,18.2,14z M14,16.8c0.4,0,0.7-0.1,1.1-0.2c0.3-0.1,0.6-0.3,0.9-0.6c0.3-0.3,0.5-0.6,0.6-0.9
	c0.1-0.3,0.2-0.7,0.2-1.1c0-0.4-0.1-0.7-0.2-1.1c-0.1-0.3-0.3-0.6-0.6-0.9c-0.3-0.3-0.6-0.5-0.9-0.6c-0.3-0.1-0.7-0.2-1.1-0.2
	c-0.7,0-1.5,0.3-2,0.8c-0.5,0.5-0.8,1.2-0.8,2c0,0.7,0.3,1.5,0.8,2C12.5,16.5,13.3,16.8,14,16.8z M17.4,11.1H19c0.1,0,0.2,0,0.3-0.1
	c0.1-0.1,0.1-0.2,0.1-0.3V9c0-0.1,0-0.2-0.1-0.3c-0.1-0.1-0.2-0.1-0.3-0.1h-1.7c-0.1,0-0.2,0-0.3,0.1C17,8.7,16.9,8.8,16.9,9v1.7
	C16.9,10.9,17.1,11.1,17.4,11.1z M14,0.6c-3.6,0-7,1.4-9.5,3.9S0.6,10.4,0.6,14c0,3.6,1.4,7,3.9,9.5s5.9,3.9,9.5,3.9
	c1.8,0,3.5-0.3,5.1-1s3.1-1.7,4.4-2.9c1.2-1.2,2.2-2.7,2.9-4.4s1-3.4,1-5.1c0-1.8-0.3-3.5-1-5.1s-1.7-3.1-2.9-4.4
	c-1.2-1.2-2.7-2.2-4.4-2.9C17.5,0.9,15.8,0.6,14,0.6z M21,19.4c0,0.9-0.7,1.6-1.6,1.6H8.6C7.7,21,7,20.3,7,19.4V8.6
	C7,7.7,7.7,7,8.6,7h10.9C20.3,7,21,7.7,21,8.6V19.4z"/>
</svg>
