<svg width="26" height="26" viewBox="0 0 26 26" fill="none" xmlns="http://www.w3.org/2000/svg">
<path d="M9.60889 14.625C8.8054 14.625 8.01996 14.3867 7.35188 13.9403C6.68381 13.494 6.16311 12.8595 5.85563 12.1172C5.54815 11.3748 5.4677 10.558 5.62445 9.76995C5.7812 8.9819 6.16812 8.25803 6.73627 7.68988C7.30442 7.12173 8.02829 6.73481 8.81633 6.57806C9.60438 6.42131 10.4212 6.50176 11.1635 6.80924C11.9059 7.11672 12.5403 7.63742 12.9867 8.3055C13.4331 8.97357 13.6714 9.75902 13.6714 10.5625C13.6701 11.6395 13.2417 12.6721 12.4801 13.4337C11.7185 14.1953 10.6859 14.6237 9.60889 14.625ZM9.60889 8.125C9.1268 8.125 8.65553 8.26796 8.25469 8.53579C7.85384 8.80363 7.54142 9.18432 7.35693 9.62971C7.17244 10.0751 7.12417 10.5652 7.21822 11.038C7.31228 11.5109 7.54442 11.9452 7.88532 12.2861C8.22621 12.627 8.66053 12.8591 9.13336 12.9532C9.60618 13.0472 10.0963 12.9989 10.5417 12.8145C10.9871 12.63 11.3678 12.3175 11.6356 11.9167C11.9034 11.5159 12.0464 11.0446 12.0464 10.5625C12.0457 9.91623 11.7887 9.29662 11.3317 8.83964C10.8748 8.38266 10.2552 8.12565 9.60889 8.125Z" fill="white"/>
<path d="M9.6089 24.375L2.75465 16.2914C2.65941 16.1701 2.56515 16.0479 2.4719 15.925C1.30107 14.3827 0.668558 12.4989 0.671396 10.5625C0.671396 8.19213 1.61302 5.91884 3.28913 4.24273C4.96524 2.56663 7.23852 1.625 9.6089 1.625C11.9793 1.625 14.2526 2.56663 15.9287 4.24273C17.6048 5.91884 18.5464 8.19213 18.5464 10.5625C18.5492 12.498 17.917 14.381 16.7467 15.9226L16.7459 15.925C16.7459 15.925 16.5021 16.2451 16.4656 16.2882L9.6089 24.375ZM3.76865 14.9459C3.77027 14.9459 3.95877 15.1962 4.00183 15.2498L9.6089 21.8628L15.2233 15.2409C15.259 15.1962 15.4491 14.9443 15.45 14.9435C16.4064 13.6834 16.9233 12.1445 16.9214 10.5625C16.9214 8.6231 16.151 6.76314 14.7796 5.39178C13.4083 4.02042 11.5483 3.25 9.6089 3.25C7.6695 3.25 5.80954 4.02042 4.43818 5.39178C3.06682 6.76314 2.2964 8.6231 2.2964 10.5625C2.29469 12.1454 2.81215 13.6853 3.76946 14.9459H3.76865Z" fill="white"/>
</svg>
