<svg width="14" height="10" viewBox="0 0 14 10" fill="none" xmlns="http://www.w3.org/2000/svg">
<path d="M10.214 0.766C12.206 0.766 13.202 1.93 13.202 4.258V10H12.104V4.33C12.104 3.418 11.942 2.758 11.618 2.35C11.294 1.93 10.778 1.72 10.07 1.72C9.242 1.72 8.588 1.996 8.108 2.548C7.64 3.1 7.406 3.85 7.406 4.798V10H6.308V4.33C6.308 3.418 6.14 2.758 5.804 2.35C5.48 1.93 4.964 1.72 4.256 1.72C3.44 1.72 2.786 1.996 2.294 2.548C1.814 3.1 1.574 3.85 1.574 4.798V10H0.494V3.484C0.494 2.548 0.446 1.714 0.35 0.981999H1.394L1.538 2.602C1.79 2.002 2.162 1.546 2.654 1.234C3.158 0.922 3.74 0.766 4.4 0.766C5.852 0.766 6.782 1.354 7.19 2.53C7.442 1.978 7.832 1.546 8.36 1.234C8.9 0.922 9.518 0.766 10.214 0.766Z" fill="#349E5B"/>
</svg>
