<svg width="20" height="20" viewBox="0 0 20 20" fill="none" xmlns="http://www.w3.org/2000/svg">
<path d="M17.6072 20.0003H17.4776C2.49366 19.1383 0.366177 6.49078 0.0687865 2.6309C0.0448239 2.33079 0.0802922 2.0289 0.173159 1.74253C0.266026 1.45616 0.414466 1.19093 0.609974 0.962043C0.805483 0.733158 1.04422 0.545113 1.3125 0.408684C1.58078 0.272255 1.87333 0.190122 2.1734 0.166993H6.37499C6.68043 0.166697 6.97892 0.258157 7.2318 0.429527C7.48468 0.600896 7.6803 0.844278 7.79331 1.12815L8.95237 3.9811C9.06397 4.25842 9.09167 4.56242 9.03202 4.85536C8.97237 5.14829 8.828 5.41724 8.61686 5.62879L6.99265 7.26885C7.24636 8.71115 7.93681 10.0407 8.9706 11.0776C10.0044 12.1145 11.3316 12.8087 12.7727 13.0663L14.4274 11.4262C14.6421 11.2173 14.9134 11.0763 15.2077 11.0207C15.502 10.965 15.8061 10.9973 16.0821 11.1135L18.9569 12.2653C19.2364 12.382 19.4748 12.5792 19.6419 12.8319C19.8089 13.0845 19.897 13.3812 19.8948 13.6842V17.7119C19.8948 18.3188 19.6538 18.9009 19.2248 19.3301C18.7958 19.7592 18.2139 20.0003 17.6072 20.0003ZM2.35641 1.69263C2.15417 1.69263 1.96021 1.773 1.81721 1.91606C1.6742 2.05912 1.59387 2.25314 1.59387 2.45545V2.51648C1.94463 7.03238 4.19413 17.7119 17.5614 18.4747C17.6616 18.4809 17.762 18.4672 17.8569 18.4345C17.9518 18.4018 18.0393 18.3507 18.1144 18.284C18.1895 18.2174 18.2507 18.1366 18.2945 18.0463C18.3384 17.956 18.3639 17.8579 18.3697 17.7576V13.6842L15.495 12.5323L13.3065 14.7064L12.9405 14.6606C6.30636 13.8291 5.40656 7.19257 5.40656 7.12392L5.36081 6.75776L7.52643 4.56847L6.38262 1.69263H2.35641Z" fill="white"/>
</svg>
