<svg width="26" height="26" viewBox="0 0 26 26" fill="none" xmlns="http://www.w3.org/2000/svg">
<path d="M9.60864 14.625C8.80516 14.625 8.01971 14.3867 7.35164 13.9403C6.68357 13.494 6.16286 12.8595 5.85538 12.1172C5.5479 11.3748 5.46745 10.558 5.6242 9.76995C5.78096 8.9819 6.16787 8.25803 6.73602 7.68988C7.30417 7.12173 8.02804 6.73481 8.81609 6.57806C9.60414 6.42131 10.421 6.50176 11.1633 6.80924C11.9056 7.11672 12.5401 7.63742 12.9865 8.3055C13.4329 8.97357 13.6711 9.75902 13.6711 10.5625C13.6699 11.6395 13.2414 12.6721 12.4798 13.4337C11.7183 14.1953 10.6857 14.6237 9.60864 14.625ZM9.60864 8.125C9.12655 8.125 8.65529 8.26796 8.25444 8.53579C7.8536 8.80363 7.54118 9.18432 7.35669 9.62971C7.1722 10.0751 7.12393 10.5652 7.21798 11.038C7.31203 11.5109 7.54418 11.9452 7.88507 12.2861C8.22596 12.627 8.66028 12.8591 9.13311 12.9532C9.60594 13.0472 10.096 12.9989 10.5414 12.8145C10.9868 12.63 11.3675 12.3175 11.6354 11.9167C11.9032 11.5159 12.0461 11.0446 12.0461 10.5625C12.0455 9.91623 11.7885 9.29662 11.3315 8.83964C10.8745 8.38266 10.2549 8.12565 9.60864 8.125Z" fill="#525252"/>
<path d="M9.60865 24.375L2.7544 16.2914C2.65916 16.1701 2.56491 16.0479 2.47165 15.925C1.30082 14.3827 0.668314 12.4989 0.671152 10.5625C0.671152 8.19213 1.61278 5.91884 3.28889 4.24273C4.96499 2.56663 7.23828 1.625 9.60865 1.625C11.979 1.625 14.2523 2.56663 15.9284 4.24273C17.6045 5.91884 18.5462 8.19213 18.5462 10.5625C18.549 12.498 17.9168 14.381 16.7465 15.9226L16.7457 15.925C16.7457 15.925 16.5019 16.2451 16.4653 16.2882L9.60865 24.375ZM3.7684 14.9459C3.77003 14.9459 3.95853 15.1962 4.00159 15.2498L9.60865 21.8628L15.223 15.2409C15.2588 15.1962 15.4489 14.9443 15.4497 14.9435C16.4061 13.6834 16.923 12.1445 16.9212 10.5625C16.9212 8.6231 16.1507 6.76314 14.7794 5.39178C13.408 4.02042 11.548 3.25 9.60865 3.25C7.66926 3.25 5.80929 4.02042 4.43793 5.39178C3.06657 6.76314 2.29615 8.6231 2.29615 10.5625C2.29445 12.1454 2.81191 13.6853 3.76921 14.9459H3.7684Z" fill="#525252"/>
</svg>
