<svg width="20" height="20" viewBox="0 0 20 20" fill="none" xmlns="http://www.w3.org/2000/svg">
<path d="M17.607 20.0003H17.4773C2.49342 19.1383 0.365933 6.49078 0.0685424 2.6309C0.0445797 2.33079 0.080048 2.0289 0.172915 1.74253C0.265782 1.45616 0.414222 1.19093 0.60973 0.962043C0.805238 0.733158 1.04397 0.545113 1.31225 0.408684C1.58053 0.272255 1.87309 0.190122 2.17315 0.166993H6.37475C6.68019 0.166697 6.97868 0.258157 7.23156 0.429527C7.48444 0.600896 7.68006 0.844278 7.79307 1.12815L8.95213 3.9811C9.06373 4.25842 9.09142 4.56242 9.03177 4.85536C8.97213 5.14829 8.82776 5.41724 8.61661 5.62879L6.9924 7.26885C7.24611 8.71115 7.93657 10.0407 8.97035 11.0776C10.0041 12.1145 11.3314 12.8087 12.7725 13.0663L14.4272 11.4262C14.6418 11.2173 14.9132 11.0763 15.2075 11.0207C15.5017 10.965 15.8058 10.9973 16.0819 11.1135L18.9567 12.2653C19.2361 12.382 19.4746 12.5792 19.6416 12.8319C19.8087 13.0845 19.8967 13.3812 19.8946 13.6842V17.7119C19.8946 18.3188 19.6536 18.9009 19.2245 19.3301C18.7955 19.7592 18.2137 20.0003 17.607 20.0003ZM2.35616 1.69263C2.15392 1.69263 1.95997 1.773 1.81696 1.91606C1.67396 2.05912 1.59362 2.25314 1.59362 2.45545V2.51648C1.94439 7.03238 4.19388 17.7119 17.5612 18.4747C17.6614 18.4809 17.7618 18.4672 17.8567 18.4345C17.9516 18.4018 18.0391 18.3507 18.1142 18.284C18.1893 18.2174 18.2505 18.1366 18.2943 18.0463C18.3381 17.956 18.3637 17.8579 18.3695 17.7576V13.6842L15.4947 12.5323L13.3062 14.7064L12.9402 14.6606C6.30612 13.8291 5.40632 7.19257 5.40632 7.12392L5.36057 6.75776L7.52618 4.56847L6.38237 1.69263H2.35616Z" fill="#525252"/>
</svg>
