<svg width="18" height="18" viewBox="0 0 18 18" fill="none" xmlns="http://www.w3.org/2000/svg">
<path d="M16.917 0.733336H1.08366C0.94663 0.733336 0.815214 0.78777 0.71832 0.884664C0.621427 0.981558 0.566992 1.11297 0.566992 1.25V17.0833C0.566992 17.2204 0.621427 17.3518 0.71832 17.4487C0.815215 17.5456 0.946631 17.6 1.08366 17.6H16.917C17.054 17.6 17.1854 17.5456 17.2823 17.4487C17.3792 17.3518 17.4337 17.2204 17.4337 17.0833V1.25C17.4337 1.11297 17.3792 0.981557 17.2823 0.884664C17.1854 0.78777 17.054 0.733336 16.917 0.733336ZM5.98366 16.5667H1.60033V7.18334H5.98366V16.5667ZM10.9837 16.5667H7.01699V7.18334H10.9837V16.5667ZM16.4003 16.5667H12.017V7.18334H16.4003V16.5667ZM16.4003 6.15H1.60033V1.76667H16.4003V6.15Z" fill="#525252" stroke="#525252" stroke-width="0.2"/>
</svg>
