<?xml version="1.0" encoding="utf-8"?>
<!-- Generator: Adobe Illustrator 25.3.1, SVG Export Plug-In . SVG Version: 6.00 Build 0)  -->
<svg version="1.1" id="Слой_1" xmlns="http://www.w3.org/2000/svg" xmlns:xlink="http://www.w3.org/1999/xlink" x="0px" y="0px"
	 viewBox="0 0 28 28" style="enable-background:new 0 0 28 28;" xml:space="preserve">
<style type="text/css">
	.st0{fill-rule:evenodd;clip-rule:evenodd;fill:#349E5B;}
</style>
<path class="st0" d="M28,14c0,7.7-6.3,14-14,14S0,21.7,0,14S6.3,0,14,0S28,6.3,28,14z M14.5,10.3c-1.4,0.6-4.1,1.7-8.2,3.5
	c-0.7,0.3-1,0.5-1,0.8c-0.1,0.4,0.5,0.6,1.2,0.8c0.1,0,0.2,0.1,0.3,0.1C7.5,15.8,8.5,16,9,16.1c0.5,0,1-0.2,1.5-0.6
	c3.8-2.6,5.8-3.9,5.9-3.9c0.1,0,0.2,0,0.3,0c0.1,0.1,0.1,0.2,0.1,0.2c-0.1,0.2-2.1,2.2-3.2,3.2c-0.3,0.3-0.6,0.5-0.6,0.6
	c-0.1,0.1-0.2,0.2-0.3,0.3c-0.7,0.6-1.2,1.1,0,1.9c0.6,0.4,1,0.7,1.5,1c0.5,0.3,1,0.7,1.6,1.1c0.2,0.1,0.3,0.2,0.5,0.3
	c0.6,0.4,1.1,0.8,1.7,0.7c0.4,0,0.8-0.4,1-1.4c0.5-2.5,1.4-7.9,1.6-10.1c0-0.2,0-0.4,0-0.6c0-0.1-0.1-0.3-0.2-0.4
	c-0.2-0.1-0.4-0.2-0.5-0.2C19.2,8.4,18.4,8.7,14.5,10.3z"/>
</svg>
