<svg width="21" height="22" viewBox="0 0 21 22" fill="none" xmlns="http://www.w3.org/2000/svg">
<path fill-rule="evenodd" clip-rule="evenodd" d="M20.2991 0.103078C20.3987 0.16467 20.4809 0.250678 20.5379 0.352947C20.595 0.455216 20.6249 0.570357 20.625 0.687453V21.3125C20.625 21.4948 20.5526 21.6697 20.4236 21.7986C20.2947 21.9275 20.1198 22 19.9375 22H15.8125C15.6302 22 15.4553 21.9275 15.3264 21.7986C15.1974 21.6697 15.125 21.4948 15.125 21.3125V19.25H13.75V21.3125C13.75 21.4948 13.6776 21.6697 13.5486 21.7986C13.4197 21.9275 13.2448 22 13.0625 22H0.6875C0.505164 22 0.330295 21.9275 0.201364 21.7986C0.0724328 21.6697 0 21.4948 0 21.3125V13.75C0.000109514 13.6057 0.0455786 13.4652 0.129972 13.3482C0.214365 13.2312 0.333407 13.1438 0.47025 13.0982L8.25 10.505V6.18745C8.25 6.05988 8.2855 5.93483 8.35252 5.82628C8.41955 5.71774 8.51545 5.62998 8.6295 5.57283L19.6295 0.0728278C19.7344 0.0203108 19.851 -0.00447999 19.9682 0.000814976C20.0855 0.00610994 20.1994 0.0413145 20.2991 0.103078ZM8.25 11.9542L1.375 14.245V20.625H8.25V11.9542ZM9.625 20.625H12.375V18.5625C12.375 18.3801 12.4474 18.2052 12.5764 18.0763C12.7053 17.9474 12.8802 17.875 13.0625 17.875H15.8125C15.9948 17.875 16.1697 17.9474 16.2986 18.0763C16.4276 18.2052 16.5 18.3801 16.5 18.5625V20.625H19.25V1.79983L9.625 6.61233V20.625Z" fill="#525252"/>
<path d="M2.75 15.125H4.125V16.5H2.75V15.125ZM5.5 15.125H6.875V16.5H5.5V15.125ZM2.75 17.875H4.125V19.25H2.75V17.875ZM5.5 17.875H6.875V19.25H5.5V17.875ZM11 12.375H12.375V13.75H11V12.375ZM13.75 12.375H15.125V13.75H13.75V12.375ZM11 15.125H12.375V16.5H11V15.125ZM13.75 15.125H15.125V16.5H13.75V15.125ZM16.5 12.375H17.875V13.75H16.5V12.375ZM16.5 15.125H17.875V16.5H16.5V15.125ZM11 9.625H12.375V11H11V9.625ZM13.75 9.625H15.125V11H13.75V9.625ZM16.5 9.625H17.875V11H16.5V9.625ZM11 6.875H12.375V8.25H11V6.875ZM13.75 6.875H15.125V8.25H13.75V6.875ZM16.5 6.875H17.875V8.25H16.5V6.875ZM16.5 4.125H17.875V5.5H16.5V4.125Z" fill="#525252"/>
</svg>
