<svg width="32" height="18" viewBox="0 0 32 18" fill="none" xmlns="http://www.w3.org/2000/svg">
<path d="M32 5.5306C32 5.10622 31.6428 4.76246 31.2019 4.76246H4.81962V1.622H7.32424V3.05643C7.32424 3.48082 7.68141 3.82457 8.12236 3.82457C8.56332 3.82457 8.92049 3.48082 8.92049 3.05643V0.858106C8.92049 0.433719 8.56332 0.0899658 8.12236 0.0899658H4.0215C3.58054 0.0899658 3.22337 0.433719 3.22337 0.858106V4.76246H0.798126C0.357172 4.76246 0 5.10622 0 5.5306C0 10.3474 3.0073 14.4979 7.31101 16.3397L7.06408 16.4373C6.6584 16.6029 6.46438 17.0485 6.63635 17.4389C6.76423 17.7317 7.05967 17.91 7.37274 17.91C7.47416 17.91 7.57999 17.8887 7.68141 17.8506L9.62161 17.0697C10.4815 17.2522 11.3722 17.3498 12.285 17.3498H19.715C20.7998 17.3498 21.8492 17.214 22.8502 16.9593L25.0638 17.8506C25.1652 17.893 25.2666 17.91 25.3725 17.91C25.6855 17.91 25.981 17.7317 26.1089 17.4389C26.2808 17.0485 26.0868 16.5986 25.6811 16.4373L25.0418 16.1827C29.1559 14.2687 32 10.2116 32 5.5306ZM19.715 15.822H12.285C6.6584 15.822 2.0328 11.6163 1.62271 6.29874H30.3773C29.9672 11.6163 25.3416 15.822 19.715 15.822Z" fill="#525252"/>
</svg>
