<svg width="78" height="78" viewBox="0 0 78 78" fill="none" xmlns="http://www.w3.org/2000/svg">
<path d="M23.617 32.0429C22.5391 30.867 20.6773 30.769 19.5014 31.8469C18.3256 32.9248 18.2276 34.7866 19.3055 35.9625L34.1019 52.0328C34.6899 52.6208 35.3758 53.0127 36.1597 53.0127C36.1597 53.0127 36.1597 53.0127 36.2577 53.0127C37.0416 53.0127 37.8255 52.7188 38.3155 52.1308L75.7477 14.7966C76.9235 13.6208 76.9235 11.759 75.7477 10.6811C74.5718 9.60318 72.71 9.50519 71.6321 10.6811L36.3557 45.8595L23.617 32.0429Z" fill="url(#paint0_linear_214:1622)"/>
<path d="M75.0603 36.0603C73.3945 36.0603 72.1206 37.3342 72.1206 39C72.1206 57.2261 57.2261 72.1206 39 72.1206C20.7739 72.1206 5.8794 57.2261 5.8794 39C5.8794 20.7739 20.7739 5.8794 39 5.8794C40.6658 5.8794 41.9397 4.60553 41.9397 2.9397C41.9397 1.27387 40.6658 0 39 0C17.5402 0 0 17.5402 0 39C0 60.4598 17.5402 78 39 78C60.4598 78 78 60.4598 78 39C78 37.3342 76.7261 36.0603 75.0603 36.0603Z" fill="url(#paint1_linear_214:1622)"/>
<defs>
<linearGradient id="paint0_linear_214:1622" x1="47.5921" y1="-5.09531" x2="47.5921" y2="82.7787" gradientUnits="userSpaceOnUse">
<stop stop-color="#349E5B" stop-opacity="0.49"/>
<stop offset="1" stop-color="#349E5B"/>
</linearGradient>
<linearGradient id="paint1_linear_214:1622" x1="39" y1="-5.09548" x2="39" y2="82.7786" gradientUnits="userSpaceOnUse">
<stop stop-color="#349E5B" stop-opacity="0.49"/>
<stop offset="1" stop-color="#349E5B"/>
</linearGradient>
</defs>
</svg>
