<svg width="23" height="19" viewBox="0 0 23 19" fill="none" xmlns="http://www.w3.org/2000/svg">
<path d="M21.6523 8.26048V2.03571C21.6523 0.91381 20.7449 0 19.6309 0H3.36914C2.25508 0 1.34766 0.91381 1.34766 2.03571V8.26048C0.561523 8.54095 0 9.29191 0 10.1786V18.3214C0 18.6969 0.300977 19 0.673828 19H3.36914C3.74199 19 4.04297 18.6969 4.04297 18.3214V16.2857H18.957V18.3214C18.957 18.6969 19.258 19 19.6309 19H22.3262C22.699 19 23 18.6969 23 18.3214V10.1786C23 9.29191 22.4385 8.54095 21.6523 8.26048ZM3.36914 1.35714H19.6309C20.0037 1.35714 20.3047 1.66024 20.3047 2.03571V8.14286H18.8402C18.9166 7.93024 18.957 7.70405 18.957 7.46429V6.10714C18.957 4.98524 18.0496 4.07143 16.9355 4.07143H14.1953C13.0813 4.07143 12.1738 4.98524 12.1738 6.10714V7.46429C12.1738 7.70405 12.2143 7.93024 12.2906 8.14286H10.7094C10.7857 7.93024 10.8262 7.70405 10.8262 7.46429V6.10714C10.8262 4.98524 9.91875 4.07143 8.80469 4.07143H6.06445C4.95039 4.07143 4.04297 4.98524 4.04297 6.10714V7.46429C4.04297 7.70405 4.0834 7.93024 4.15977 8.14286H2.69531V2.03571C2.69531 1.66024 2.99629 1.35714 3.36914 1.35714ZM13.5215 7.46429V6.10714C13.5215 5.73167 13.8225 5.42857 14.1953 5.42857H16.9355C17.3084 5.42857 17.6094 5.73167 17.6094 6.10714V7.46429C17.6094 7.83976 17.3084 8.14286 16.9355 8.14286H14.1953C13.8225 8.14286 13.5215 7.83976 13.5215 7.46429ZM5.39062 7.46429V6.10714C5.39062 5.73167 5.6916 5.42857 6.06445 5.42857H8.80469C9.17754 5.42857 9.47852 5.73167 9.47852 6.10714V7.46429C9.47852 7.83976 9.17754 8.14286 8.80469 8.14286H6.06445C5.6916 8.14286 5.39062 7.83976 5.39062 7.46429ZM2.02148 9.5H20.9785C21.3514 9.5 21.6523 9.8031 21.6523 10.1786V12.2143H1.34766V10.1786C1.34766 9.8031 1.64863 9.5 2.02148 9.5ZM20.3047 17.6429V15.6071C20.3047 15.2317 20.0037 14.9286 19.6309 14.9286H3.36914C2.99629 14.9286 2.69531 15.2317 2.69531 15.6071V17.6429H1.34766V13.5714H21.6523V17.6429H20.3047Z" fill="#349E5B"/>
</svg>
