<svg width="32" height="19" viewBox="0 0 32 19" fill="none" xmlns="http://www.w3.org/2000/svg">
<path d="M32 5.87064C32 5.44625 31.6428 5.1025 31.2019 5.1025H4.81962V1.96204H7.32424V3.39646C7.32424 3.82085 7.68141 4.1646 8.12236 4.1646C8.56332 4.1646 8.92049 3.82085 8.92049 3.39646V1.19814C8.92049 0.773754 8.56332 0.43 8.12236 0.43H4.0215C3.58054 0.43 3.22337 0.773754 3.22337 1.19814V5.1025H0.798126C0.357172 5.1025 0 5.44625 0 5.87064C0 10.6874 3.0073 14.8379 7.31101 16.6798L7.06408 16.7774C6.6584 16.9429 6.46438 17.3885 6.63635 17.7789C6.76423 18.0718 7.05967 18.25 7.37274 18.25C7.47416 18.25 7.57999 18.2288 7.68141 18.1906L9.62161 17.4097C10.4815 17.5922 11.3722 17.6898 12.285 17.6898H19.715C20.7998 17.6898 21.8492 17.554 22.8502 17.2994L25.0638 18.1906C25.1652 18.233 25.2666 18.25 25.3725 18.25C25.6855 18.25 25.981 18.0718 26.1089 17.7789C26.2808 17.3885 26.0868 16.9386 25.6811 16.7774L25.0418 16.5227C29.1559 14.6088 32 10.5516 32 5.87064ZM19.715 16.162H12.285C6.6584 16.162 2.0328 11.9563 1.62271 6.63878H30.3773C29.9672 11.9563 25.3416 16.162 19.715 16.162Z" fill="#349E5B"/>
</svg>
