<svg width="17" height="16" viewBox="0 0 17 16" fill="none" xmlns="http://www.w3.org/2000/svg">
<path d="M8.90215 -0.000488281C7.81126 0.000632426 6.73218 0.225306 5.73149 0.659665C4.73081 1.09403 3.82975 1.72886 3.08395 2.52498V0.726787C3.08395 0.533902 3.00732 0.348916 2.87093 0.212526C2.73454 0.0761351 2.54956 -0.000488281 2.35667 -0.000488281C2.16378 -0.000488281 1.9788 0.0761351 1.84241 0.212526C1.70602 0.348916 1.62939 0.533902 1.62939 0.726787V4.36316C1.62939 4.55605 1.70602 4.74103 1.84241 4.87743C1.9788 5.01382 2.16378 5.09044 2.35667 5.09044H5.99305C6.18593 5.09044 6.37092 5.01382 6.50731 4.87743C6.6437 4.74103 6.72032 4.55605 6.72032 4.36316C6.72032 4.17028 6.6437 3.98529 6.50731 3.8489C6.37092 3.71251 6.18593 3.63589 5.99305 3.63589H4.03304C4.91753 2.65136 6.07969 1.95809 7.36622 1.64752C8.65276 1.33696 10.0032 1.4237 11.2394 1.89629C12.4757 2.36889 13.5396 3.20514 14.2909 4.29473C15.0421 5.38432 15.4455 6.67606 15.4476 7.99954V8.72682C15.4476 8.9197 15.5243 9.10469 15.6606 9.24108C15.797 9.37747 15.982 9.45409 16.1749 9.45409C16.3678 9.45409 16.5528 9.37747 16.6892 9.24108C16.8256 9.10469 16.9022 8.9197 16.9022 8.72682V7.99954C16.8998 5.87854 16.0561 3.8451 14.5564 2.34532C13.0566 0.845548 11.0232 0.00191785 8.90215 -0.000488281Z" fill="white"/>
<path d="M15.4479 10.9091H11.8115C11.6186 10.9091 11.4336 10.9857 11.2972 11.1221C11.1608 11.2585 11.0842 11.4435 11.0842 11.6363C11.0842 11.8292 11.1608 12.0142 11.2972 12.1506C11.4336 12.287 11.6186 12.3636 11.8115 12.3636H13.7715C12.887 13.3481 11.7248 14.0414 10.4383 14.352C9.15177 14.6625 7.80132 14.5758 6.56509 14.1032C5.32886 13.6306 4.26493 12.7944 3.51366 11.7048C2.76239 10.6152 2.35907 9.32345 2.3569 7.99996V7.27269C2.3569 7.0798 2.28028 6.89481 2.14389 6.75842C2.0075 6.62203 1.82251 6.54541 1.62963 6.54541C1.43674 6.54541 1.25176 6.62203 1.11537 6.75842C0.978975 6.89481 0.902352 7.0798 0.902352 7.27269V7.99996C0.900087 9.60306 1.38016 11.1698 2.28015 12.4964C3.18014 13.823 4.45843 14.8482 5.94883 15.4387C7.43923 16.0292 9.07279 16.1576 10.6372 15.8073C12.2015 15.457 13.6243 14.6442 14.7206 13.4745V15.2727C14.7206 15.4656 14.7972 15.6506 14.9336 15.787C15.07 15.9234 15.255 16 15.4479 16C15.6407 16 15.8257 15.9234 15.9621 15.787C16.0985 15.6506 16.1751 15.4656 16.1751 15.2727V11.6363C16.1751 11.4435 16.0985 11.2585 15.9621 11.1221C15.8257 10.9857 15.6407 10.9091 15.4479 10.9091Z" fill="white"/>
</svg>
